<svg width="18" height="20" viewBox="0 0 18 20" fill="none" xmlns="http://www.w3.org/2000/svg">
<path fill-rule="evenodd" clip-rule="evenodd" d="M3 3.875C2.70163 3.875 2.41548 3.99353 2.2045 4.2045C1.99353 4.41548 1.875 4.70163 1.875 5V17C1.875 17.2984 1.99353 17.5845 2.2045 17.7955C2.41548 18.0065 2.70163 18.125 3 18.125H15C15.2984 18.125 15.5845 18.0065 15.7955 17.7955C16.0065 17.5845 16.125 17.2984 16.125 17V5C16.125 4.70163 16.0065 4.41548 15.7955 4.2045C15.5845 3.99353 15.2984 3.875 15 3.875H3ZM0.967068 2.96707C1.50624 2.4279 2.2375 2.125 3 2.125H15C15.7625 2.125 16.4938 2.4279 17.0329 2.96707C17.5721 3.50623 17.875 4.2375 17.875 5V17C17.875 17.7625 17.5721 18.4938 17.0329 19.0329C16.4938 19.5721 15.7625 19.875 15 19.875H3C2.2375 19.875 1.50623 19.5721 0.967068 19.0329C0.427901 18.4938 0.125 17.7625 0.125 17V5C0.125 4.2375 0.427901 3.50624 0.967068 2.96707Z" fill="#0061AB"/>
<path fill-rule="evenodd" clip-rule="evenodd" d="M13 0.125C13.4832 0.125 13.875 0.516751 13.875 1V5C13.875 5.48325 13.4832 5.875 13 5.875C12.5168 5.875 12.125 5.48325 12.125 5V1C12.125 0.516751 12.5168 0.125 13 0.125Z" fill="#0061AB"/>
<path fill-rule="evenodd" clip-rule="evenodd" d="M5 0.125C5.48325 0.125 5.875 0.516751 5.875 1V5C5.875 5.48325 5.48325 5.875 5 5.875C4.51675 5.875 4.125 5.48325 4.125 5V1C4.125 0.516751 4.51675 0.125 5 0.125Z" fill="#0061AB"/>
<path fill-rule="evenodd" clip-rule="evenodd" d="M0.125 9C0.125 8.51675 0.516751 8.125 1 8.125H17C17.4832 8.125 17.875 8.51675 17.875 9C17.875 9.48325 17.4832 9.875 17 9.875H1C0.516751 9.875 0.125 9.48325 0.125 9Z" fill="#0061AB"/>
<path fill-rule="evenodd" clip-rule="evenodd" d="M4.5 13C4.5 12.7239 4.72386 12.5 5 12.5H7C7.27614 12.5 7.5 12.7239 7.5 13V15C7.5 15.2761 7.27614 15.5 7 15.5H5C4.72386 15.5 4.5 15.2761 4.5 15V13ZM5.5 13.5V14.5H6.5V13.5H5.5Z" fill="#0061AB"/>
</svg>
