<svg width="74" height="75" viewBox="0 0 74 75" fill="none" xmlns="http://www.w3.org/2000/svg">
<path d="M37 74.4019C57.4345 74.4019 74 57.8364 74 37.4019C74 16.9673 57.4345 0.401855 37 0.401855C16.5655 0.401855 0 16.9673 0 37.4019C0 57.8364 16.5655 74.4019 37 74.4019Z" fill="#E31F24"/>
<path fill-rule="evenodd" clip-rule="evenodd" d="M17.7772 17.7772C18.8135 16.7409 20.4937 16.7409 21.5301 17.7772L37 33.2472L52.47 17.7772C53.5063 16.7409 55.1865 16.7409 56.2228 17.7772C57.2591 18.8135 57.2591 20.4937 56.2228 21.5301L40.7528 37L56.2228 52.47C57.2591 53.5063 57.2591 55.1865 56.2228 56.2228C55.1865 57.2591 53.5063 57.2591 52.47 56.2228L37 40.7528L21.5301 56.2228C20.4937 57.2591 18.8135 57.2591 17.7772 56.2228C16.7409 55.1865 16.7409 53.5063 17.7772 52.47L33.2472 37L17.7772 21.5301C16.7409 20.4937 16.7409 18.8135 17.7772 17.7772Z" fill="white"/>
</svg>
