<svg width="18" height="20" viewBox="0 0 18 20" fill="none" xmlns="http://www.w3.org/2000/svg">
<path fill-rule="evenodd" clip-rule="evenodd" d="M0.125 5C0.125 4.51675 0.516751 4.125 1 4.125H17C17.4832 4.125 17.875 4.51675 17.875 5C17.875 5.48325 17.4832 5.875 17 5.875H1C0.516751 5.875 0.125 5.48325 0.125 5Z" fill="#E31F24"/>
<path fill-rule="evenodd" clip-rule="evenodd" d="M1.92734 4.12802C2.40891 4.08789 2.83185 4.44576 2.87198 4.92734L3.87198 16.9273C3.87399 16.9515 3.875 16.9757 3.875 17C3.875 17.2984 3.99353 17.5845 4.2045 17.7955C4.41548 18.0065 4.70163 18.125 5 18.125H13C13.2984 18.125 13.5845 18.0065 13.7955 17.7955C14.0065 17.5845 14.125 17.2984 14.125 17C14.125 16.9757 14.126 16.9515 14.128 16.9273L15.128 4.92734C15.1682 4.44576 15.5911 4.08789 16.0727 4.12802C16.5542 4.16815 16.9121 4.59109 16.872 5.07267L15.8747 17.0397C15.8644 17.7878 15.5627 18.5031 15.0329 19.0329C14.4938 19.5721 13.7625 19.875 13 19.875H5C4.2375 19.875 3.50623 19.5721 2.96707 19.0329C2.43726 18.5031 2.13559 17.7878 2.12527 17.0397L1.12802 5.07267C1.08789 4.59109 1.44576 4.16815 1.92734 4.12802Z" fill="#E31F24"/>
<path fill-rule="evenodd" clip-rule="evenodd" d="M7 1.875C6.96685 1.875 6.93505 1.88817 6.91161 1.91161C6.88817 1.93505 6.875 1.96685 6.875 2V5C6.875 5.48325 6.48325 5.875 6 5.875C5.51675 5.875 5.125 5.48325 5.125 5V2C5.125 1.50272 5.32254 1.02581 5.67418 0.674175C6.02581 0.322544 6.50272 0.125 7 0.125H11C11.4973 0.125 11.9742 0.322544 12.3258 0.674175C12.6775 1.02581 12.875 1.50272 12.875 2V5C12.875 5.48325 12.4832 5.875 12 5.875C11.5168 5.875 11.125 5.48325 11.125 5V2C11.125 1.96685 11.1118 1.93505 11.0884 1.91161C11.0649 1.88817 11.0332 1.875 11 1.875H7Z" fill="#E31F24"/>
<path fill-rule="evenodd" clip-rule="evenodd" d="M6.38128 9.38128C6.72299 9.03957 7.27701 9.03957 7.61872 9.38128L9 10.7626L10.3813 9.38128C10.723 9.03957 11.277 9.03957 11.6187 9.38128C11.9604 9.72299 11.9604 10.277 11.6187 10.6187L10.2374 12L11.6187 13.3813C11.9604 13.723 11.9604 14.277 11.6187 14.6187C11.277 14.9604 10.723 14.9604 10.3813 14.6187L9 13.2374L7.61872 14.6187C7.27701 14.9604 6.72299 14.9604 6.38128 14.6187C6.03957 14.277 6.03957 13.723 6.38128 13.3813L7.76256 12L6.38128 10.6187C6.03957 10.277 6.03957 9.72299 6.38128 9.38128Z" fill="#E31F24"/>
</svg>
