<svg width="112" height="41" viewBox="0 0 112 41" fill="none" xmlns="http://www.w3.org/2000/svg">
<path d="M110.562 28.342H109.357V18.9943C109.357 17.8648 109.318 17.0469 109.202 16.5016C109.085 15.9564 108.891 15.4111 108.618 14.8269C108.191 14.0479 107.608 13.4247 106.869 12.9963C106.131 12.5289 105.276 12.3342 104.381 12.3342C102.516 12.3342 101.155 13.1131 100.261 14.71C99.9501 15.2553 99.7169 15.8785 99.6003 16.5016C99.4837 17.1248 99.4059 17.9427 99.4059 19.0333V28.342H98.2009V18.8386C98.2009 16.8132 98.5119 15.2553 99.1338 14.1647C99.6392 13.3079 100.378 12.6068 101.311 12.0615C102.282 11.5162 103.332 11.2436 104.42 11.2436C105.859 11.2436 107.141 11.711 108.269 12.6068C109.124 13.3079 109.746 14.1258 110.096 15.0606C110.445 15.9953 110.601 17.3975 110.601 19.1891L110.562 28.342ZM84.2849 2.20758V28.3809H83.0798V2.20758H84.2849ZM93.3031 11.5941L85.8009 19.3059L94.0805 28.342H92.4868L84.9457 20.1628C84.557 19.7733 84.4015 19.4617 84.4015 19.267C84.4015 19.0722 84.5958 18.7607 84.9846 18.4101L91.7094 11.5941H93.3031ZM77.8711 13.2689C76.5105 12.6458 75.3833 12.3342 74.5281 12.3342C73.5563 12.3342 72.7011 12.6458 72.0014 13.2689C71.3017 13.8921 70.8742 14.6711 70.8742 15.5279C70.8742 16.3069 71.1074 16.969 71.535 17.4754C72.0014 17.9817 72.74 18.4491 73.7895 18.8775C75.5388 19.5786 76.7049 20.2017 77.288 20.786C78.1043 21.526 78.493 22.5386 78.493 23.785C78.493 25.265 77.9488 26.4724 76.8993 27.4461C75.9663 28.2641 74.7613 28.6925 73.2842 28.6925C72.1569 28.6925 70.913 28.342 69.5914 27.6798V26.3556C71.2629 27.1346 72.5845 27.524 73.5563 27.524C74.6836 27.524 75.6554 27.0567 76.4328 26.1608C76.977 25.4987 77.288 24.7587 77.288 23.8629C77.288 22.6944 76.7826 21.7986 75.8109 21.1365C75.5776 20.9807 74.567 20.5133 72.8177 19.7344C71.8848 19.3059 71.1463 18.8385 70.6409 18.2933C69.9801 17.5922 69.6691 16.6964 69.6691 15.5669C69.6691 14.0868 70.33 12.9184 71.6127 12.0615C72.5068 11.4773 73.5563 11.1657 74.7224 11.1657C75.6554 11.1657 76.7049 11.4384 77.8322 11.9447V13.2689H77.8711ZM37.4057 28.342H36.2007V18.9943C36.2007 17.8648 36.1618 17.0469 36.0452 16.5016C35.9286 15.9564 35.7342 15.4111 35.4621 14.8269C35.0345 14.0479 34.4515 13.4247 33.7129 12.9963C32.9355 12.5679 32.1192 12.3342 31.2251 12.3342C29.3593 12.3342 27.9988 13.1131 27.1047 14.71C26.7938 15.2553 26.5605 15.8785 26.4439 16.5016C26.3273 17.1248 26.2495 17.9427 26.2495 19.0333V28.342H25.0057V18.8386C25.0057 16.8132 25.3166 15.2553 25.9386 14.1647C26.4439 13.3079 27.1825 12.6068 28.1154 12.0615C29.0872 11.5162 30.1367 11.2436 31.2251 11.2436C32.6634 11.2436 33.9461 11.711 35.0734 12.6068C35.9286 13.3079 36.5505 14.1258 36.9004 15.0606C37.2502 15.9953 37.4057 17.3975 37.4057 19.1891V28.342ZM19.136 5.47925C19.447 5.47925 19.6802 5.55714 19.8357 5.75189C20.0301 5.94663 20.1078 6.18032 20.1078 6.45296C20.1078 6.7256 20.0301 6.95929 19.8357 7.11508C19.6414 7.30982 19.4081 7.38772 19.1749 7.38772C18.9028 7.38772 18.6696 7.30982 18.4752 7.11508C18.2809 6.92034 18.2031 6.68665 18.2031 6.45296C18.2031 6.18032 18.3197 5.94663 18.4752 5.75189C18.6307 5.59609 18.8639 5.47925 19.136 5.47925ZM19.758 11.5941V28.342H18.553V11.5941H19.758Z" fill="#F0801A"/>
<path d="M73.2829 29.3546C72.0779 29.3546 70.7174 29.0041 69.2791 28.2641L68.9293 28.0693V25.304L69.8622 25.7324C71.4559 26.4725 72.661 26.823 73.555 26.823C74.4879 26.823 75.2654 26.4335 75.9262 25.6935C76.3926 25.1093 76.6259 24.525 76.6259 23.824C76.6259 22.8892 76.2372 22.1881 75.4209 21.6428C75.2654 21.526 74.2936 21.0586 72.5444 20.2797C71.456 19.7733 70.6785 19.267 70.1343 18.6828C69.3569 17.8649 68.9682 16.8132 68.9682 15.489C68.9682 13.7753 69.7067 12.4121 71.2227 11.4384C72.2334 10.7762 73.3995 10.4257 74.6823 10.4257C75.693 10.4257 76.8202 10.6983 78.0641 11.2436L78.4528 11.4384V14.2427L77.5199 13.8142C76.2372 13.23 75.2265 12.9574 74.4879 12.9574C73.6716 12.9574 72.9719 13.23 72.3889 13.7363C71.9613 14.0869 71.4948 14.71 71.4948 15.489C71.4948 16.1122 71.6503 16.6185 72.0001 17.008C72.3889 17.4364 73.0497 17.8259 73.9826 18.2154C75.8873 18.9944 77.0535 19.6175 77.7143 20.2797C78.6472 21.0976 79.1137 22.305 79.1137 23.7461C79.1137 25.3819 78.4917 26.784 77.3256 27.9135C76.276 28.8873 74.9155 29.3546 73.2829 29.3546ZM84.9444 29.043H82.4177V1.54547H84.9444V17.5143L91.436 10.932H94.8955L86.7325 19.3059L95.5952 29.0041H92.2134L84.9833 21.1365V29.043H84.9444ZM111.26 29.0041H108.695V18.9944C108.695 17.8259 108.656 17.0859 108.539 16.6575C108.423 16.1901 108.267 15.6837 107.995 15.1385C107.607 14.4763 107.101 13.9311 106.518 13.5805C105.896 13.191 105.197 12.9963 104.38 12.9963C102.748 12.9963 101.62 13.6584 100.843 15.0216C100.571 15.5279 100.376 16.0732 100.26 16.6185C100.143 17.2806 100.065 18.0596 100.065 19.0333V29.0041H97.5388V18.8386C97.5388 16.6575 97.8887 15.0216 98.5495 13.8532C99.0937 12.9184 99.91 12.1005 100.96 11.5163C102.048 10.8931 103.175 10.6204 104.419 10.6204C105.974 10.6204 107.412 11.1268 108.695 12.1394C109.667 12.9184 110.366 13.8532 110.716 14.8658C111.066 15.8395 111.26 17.2806 111.26 19.228V29.0041ZM38.0652 29.0041H35.5386V18.9944C35.5386 17.8259 35.4997 17.0859 35.3831 16.6575C35.2665 16.1901 35.111 15.6837 34.8389 15.1385C34.4502 14.4763 33.9448 13.9311 33.3618 13.5805C32.6621 13.191 31.9624 12.9963 31.2238 12.9963C29.5912 12.9963 28.4639 13.6584 27.6865 15.0216C27.4144 15.5279 27.22 16.0732 27.1034 16.6185C26.9868 17.2806 26.9091 18.0596 26.9091 19.0333V29.0041H24.3436V18.8386C24.3436 16.6575 24.6934 15.0216 25.3542 13.8532C25.8984 12.9184 26.7147 12.1005 27.7643 11.5163C28.8527 10.8931 29.9799 10.6204 31.2238 10.6204C32.7787 10.6204 34.2169 11.1268 35.4997 12.1394C36.4715 12.9184 37.1712 13.8532 37.521 14.8658C37.8709 15.8395 38.0652 17.2806 38.0652 19.228V29.0041ZM20.4175 29.0041H17.8909V10.932H20.4175V29.0041ZM19.1736 8.04986C18.7072 8.04986 18.3184 7.89406 18.0075 7.58247C17.6965 7.27089 17.541 6.8814 17.541 6.45297C17.541 6.06349 17.6965 5.674 17.9686 5.32347L18.0075 5.28452C18.3184 4.97293 18.7072 4.81714 19.1348 4.81714C19.6401 4.81714 20.0677 4.97293 20.3398 5.32347C20.6507 5.63505 20.7674 6.02454 20.7674 6.45297C20.7674 7.07614 20.4953 7.42668 20.262 7.62142C19.9899 7.89406 19.6012 8.04986 19.1736 8.04986ZM18.9793 6.21928C18.8627 6.37507 18.8627 6.45297 18.8627 6.45297C18.8627 6.53087 18.9015 6.60876 18.9404 6.64771C18.9793 6.68666 19.0181 6.72561 19.1736 6.72561C19.2514 6.72561 19.3291 6.68666 19.368 6.64771L19.4069 6.60876C19.4069 6.60876 19.4457 6.56982 19.4457 6.45297C19.4457 6.29718 19.4069 6.25823 19.368 6.21928L19.3291 6.18033C19.3291 6.18033 19.2902 6.14138 19.1348 6.14138C19.057 6.14138 18.9793 6.18033 18.9793 6.21928Z" fill="#F0801A"/>
<path d="M66.1318 11.5941V12.7236C64.4214 12.7626 63.1776 13.23 62.4779 14.0868C61.7782 14.9437 61.4283 16.4237 61.4283 18.488V28.3419H60.2233V18.3711C60.0678 13.8142 62.0503 11.5552 66.1318 11.5941ZM42.4979 11.5941H43.7029V20.9417C43.7029 22.0712 43.7417 22.8892 43.8584 23.4344C43.975 23.9797 44.1305 24.525 44.4414 25.0703C44.869 25.8492 45.4521 26.4724 46.1907 26.9008C46.9292 27.3682 47.7844 27.563 48.6784 27.563C49.5336 27.563 50.3499 27.3682 51.0496 26.9398C51.7882 26.5114 52.3712 25.9271 52.7988 25.1871C53.1098 24.6418 53.343 24.0187 53.4596 23.4344C53.5763 22.8113 53.654 21.9544 53.654 20.9028V11.5941H54.859V21.1365C54.859 23.1618 54.5481 24.7197 53.9261 25.7713C53.4208 26.6672 52.6822 27.3682 51.7493 27.9135C50.7775 28.4588 49.728 28.7314 48.6396 28.7314C47.2013 28.7314 45.9186 28.303 44.7913 27.4072C43.9361 26.7061 43.3142 25.8882 42.9643 24.9145C42.6145 23.9408 42.459 22.5776 42.459 20.8249L42.4979 11.5941Z" fill="#0061AB"/>
<path d="M48.6383 29.3936C47.0445 29.3936 45.6063 28.8872 44.3624 27.9135C43.3906 27.0956 42.6909 26.1608 42.3411 25.1092C41.9912 24.0966 41.7969 22.6944 41.7969 20.786V10.932H44.3624V20.9418C44.3624 22.1102 44.4013 22.8502 44.5179 23.2787C44.5956 23.7071 44.7511 24.2134 45.0232 24.7198C45.4119 25.4208 45.9173 25.9272 46.5392 26.3166C47.1612 26.7061 47.8608 26.9009 48.6771 26.9009C49.4546 26.9009 50.1154 26.7061 50.6985 26.3945C51.3593 26.005 51.8646 25.5377 52.2145 24.8755C52.4866 24.4082 52.6809 23.8629 52.7975 23.3176C52.8753 22.8502 52.9919 22.0713 52.9919 20.9028V10.932H55.5186V21.1365C55.5186 23.2787 55.1687 24.9534 54.5079 26.1219C53.9637 27.0567 53.1474 27.8746 52.0979 28.4977C51.0094 29.082 49.8433 29.3936 48.6383 29.3936ZM62.0879 29.0041H59.5612V18.3712C59.4835 15.8395 60.0665 13.8921 61.2716 12.6068C62.36 11.4773 63.9537 10.8931 66.0139 10.8931C66.0528 10.8931 66.0916 10.8931 66.1305 10.8931H66.7913V13.3468H66.1305C64.6534 13.3858 63.565 13.7752 62.9819 14.4763C62.3988 15.1774 62.0879 16.5795 62.0879 18.4491V29.0041Z" fill="#0061AB"/>
<path fill-rule="evenodd" clip-rule="evenodd" d="M28.8138 38.6633C12.8375 36.0148 0.165377 19.8901 2.80865 1.62334C2.84752 0.338046 0.70958 -1.14199 0.359735 2.67495C-2.08918 27.9135 17.7353 38.2738 28.9304 39.4422C29.9799 39.5591 31.6514 39.1307 28.8138 38.6633Z" fill="#E31F24"/>
<path d="M29.3198 39.637C29.1643 39.637 29.0088 39.637 28.9311 39.637C16.5699 38.3517 -2.16623 27.1735 0.20494 2.67497C0.438169 0.260172 1.33222 0.0654297 1.7598 0.0654297C2.42062 0.104378 3.04257 0.883346 3.04257 1.62337C0.515913 19.1891 12.0997 35.7032 28.8922 38.4686C30.3693 38.7022 30.6414 38.9359 30.6025 39.2086C30.5248 39.5591 29.8251 39.637 29.3198 39.637ZM1.64319 0.415965C1.06011 0.415965 0.671399 1.27283 0.515913 2.71392C-1.81638 26.9398 16.7254 38.0012 28.9311 39.2475C29.3975 39.2865 29.9029 39.2475 30.0972 39.1696C29.9417 39.0917 29.5919 38.9749 28.7367 38.8191C20.9235 37.5338 13.5768 32.86 8.64008 26.083C3.50903 18.9944 1.37109 10.3089 2.61498 1.58442C2.65385 1.03914 2.18739 0.454914 1.64319 0.415965C1.68206 0.415965 1.68206 0.415965 1.64319 0.415965Z" fill="#E31F24"/>
<path d="M36.1992 38.5465L37.0155 38.157C37.0933 38.4296 37.2488 38.6633 37.4431 38.8191C37.6375 38.9749 37.9096 39.0528 38.2205 39.0528C38.5315 39.0528 38.7647 38.9749 38.9591 38.7801C39.1535 38.6243 39.2312 38.3907 39.2312 38.0791C39.2312 37.6896 38.9202 37.339 38.2983 37.0664C38.2205 37.0275 38.1428 36.9885 38.1039 36.9496C37.4042 36.599 36.9378 36.2874 36.7045 36.0148C36.4713 35.7422 36.3547 35.3916 36.3547 34.9632C36.3547 34.4179 36.5102 33.9895 36.86 33.6779C37.2099 33.3663 37.6763 33.1716 38.2205 33.1716C38.687 33.1716 39.0757 33.2495 39.3867 33.4442C39.6977 33.6389 39.9309 33.9116 40.0475 34.2232L39.2312 34.6516C39.1146 34.4569 38.9591 34.3011 38.8036 34.1842C38.6481 34.1063 38.4926 34.0284 38.2983 34.0284C38.0262 34.0284 37.793 34.1063 37.6375 34.2621C37.482 34.4179 37.4042 34.6127 37.4042 34.8464C37.4042 35.2358 37.7541 35.5864 38.4538 35.9369C38.4926 35.9759 38.5704 35.9759 38.5704 36.0148C39.1923 36.3264 39.6199 36.599 39.8531 36.8717C40.0864 37.1443 40.203 37.4948 40.203 37.9233C40.203 38.5464 40.0086 39.0138 39.6588 39.4033C39.3089 39.7928 38.7647 39.9486 38.1428 39.9486C37.5986 39.9486 37.171 39.8317 36.8212 39.5591C36.5102 39.3644 36.277 39.0138 36.1992 38.5465Z" fill="#737370"/>
<path d="M41.4473 39.8317V33.3274H42.4579V36.0148L44.7125 33.3274H45.9564L43.4686 36.2095L46.2673 39.8317H44.9457L42.4579 36.5211V39.8317H41.4473Z" fill="#737370"/>
<path d="M46.9668 39.8317V33.3274H47.9775V39.8317H46.9668Z" fill="#737370"/>
<path d="M49.5723 39.8317V33.0547L53.576 37.0275C53.6927 37.1443 53.8093 37.2611 53.9259 37.378C54.0425 37.4948 54.1591 37.6506 54.2757 37.8064V33.3274H55.2086V40.0654L51.1271 36.0148C51.0105 35.898 50.8939 35.7811 50.8162 35.6643C50.6995 35.5474 50.6218 35.4306 50.5441 35.2748V39.7928H49.5723V39.8317Z" fill="#737370"/>
<path d="M58.629 37.3001H60.9225V38.1959H58.629V37.3001Z" fill="#737370"/>
<path d="M62.9434 39.8317V33.3274H63.954V35.7422H67.0637V33.3274H68.0744V39.8317H67.0637V36.6769H63.954V39.8317H62.9434Z" fill="#737370"/>
<path d="M73.1669 39.8317L72.4672 38.157H69.9794L69.2409 39.8317H68.1525L71.1845 33.0547L74.2165 39.8317H73.1669ZM70.3682 37.2612H72.1174L71.4566 35.7811C71.4177 35.7032 71.3788 35.5864 71.34 35.4695C71.3011 35.3527 71.2622 35.1969 71.2233 35.0411C71.1845 35.1969 71.1456 35.3137 71.1067 35.4306C71.0679 35.5474 71.029 35.6643 70.9901 35.7811L70.3682 37.2612Z" fill="#737370"/>
<path d="M75.1484 39.8317V33.3274H76.1591V39.8317H75.1484Z" fill="#737370"/>
<path d="M78.7256 36.9106V39.8317H77.7538V33.3274H79.192C79.6196 33.3274 79.9306 33.3663 80.1638 33.4053C80.397 33.4442 80.5914 33.561 80.7469 33.6779C80.9412 33.8337 81.0967 34.0284 81.2133 34.3011C81.33 34.5348 81.3688 34.8074 81.3688 35.119C81.3688 35.6253 81.2522 36.0537 81.019 36.3264C80.7858 36.638 80.397 36.7938 79.9306 36.8717L82.1074 39.8317H80.9412L78.8422 36.9106H78.7256ZM78.8033 36.0927H78.9977C79.5419 36.0927 79.8917 36.0148 80.0861 35.898C80.2804 35.7811 80.3582 35.5474 80.3582 35.1969C80.3582 34.8463 80.2804 34.5737 80.0861 34.4569C79.8917 34.3011 79.5419 34.2232 79.0365 34.2232H78.8422V36.0927H78.8033Z" fill="#737370"/>
<path d="M84.9453 37.3001H87.2387V38.1959H84.9453V37.3001Z" fill="#737370"/>
<path d="M89.2598 39.8317V33.3274H90.8535C91.32 33.3274 91.6309 33.3663 91.8642 33.4053C92.0974 33.4442 92.2529 33.5221 92.4084 33.6389C92.6027 33.7947 92.7582 33.9895 92.8748 34.2232C92.9914 34.4569 93.0303 34.7295 93.0303 35.0021C93.0303 35.3527 92.9526 35.6253 92.7971 35.859C92.6416 36.0927 92.4084 36.2485 92.1363 36.3264C92.4861 36.4043 92.7971 36.5601 92.9914 36.8327C93.1858 37.1054 93.3024 37.4948 93.3024 37.9233C93.3024 38.1959 93.2635 38.4296 93.1858 38.6633C93.1081 38.897 92.9526 39.0917 92.7971 39.2865C92.6416 39.4812 92.4084 39.598 92.1751 39.6759C91.903 39.7538 91.4754 39.7928 90.8924 39.7928L89.2598 39.8317ZM90.2704 36.0927H90.6591C91.1645 36.0927 91.4754 36.0148 91.7087 35.898C91.903 35.7422 92.0196 35.5474 92.0196 35.1969C92.0196 34.8463 91.9419 34.5737 91.7475 34.4569C91.5532 34.3011 91.2033 34.2232 90.698 34.2232H90.3093V36.0927H90.2704ZM90.2704 38.9359H90.6203C90.9701 38.9359 91.2422 38.9359 91.4366 38.897C91.6309 38.858 91.7475 38.8191 91.8642 38.7412C91.9808 38.6633 92.0974 38.5464 92.1751 38.3907C92.2529 38.2349 92.2918 38.0791 92.2918 37.9233C92.2918 37.7285 92.2529 37.5338 92.1751 37.378C92.0974 37.2222 91.9808 37.1054 91.8253 37.0275C91.7087 36.9885 91.6309 36.9496 91.4754 36.9106C91.3588 36.8717 91.2033 36.8717 90.9701 36.8717H90.6591H90.3093V38.9359H90.2704Z" fill="#737370"/>
<path d="M100.649 36.599C100.649 37.0664 100.571 37.4948 100.416 37.9233C100.26 38.3517 99.988 38.7022 99.677 39.0138C99.3661 39.3254 98.9773 39.598 98.5886 39.7538C98.1999 39.9096 97.7723 40.0265 97.3059 40.0265C96.8394 40.0265 96.4118 39.9486 96.0231 39.7538C95.5955 39.598 95.2457 39.3254 94.9347 39.0138C94.6237 38.7022 94.3516 38.3128 94.1961 37.9233C94.0406 37.5338 93.9629 37.0664 93.9629 36.599C93.9629 36.1316 94.0406 35.7032 94.1961 35.2748C94.3516 34.8463 94.6237 34.4958 94.9347 34.1842C95.2457 33.8726 95.6344 33.6 96.0231 33.4442C96.4118 33.2884 96.8783 33.2105 97.3059 33.2105C97.7723 33.2105 98.1999 33.2884 98.5886 33.4442C98.9773 33.6 99.3661 33.8726 99.677 34.1842C99.988 34.4958 100.26 34.8853 100.416 35.3137C100.571 35.7422 100.649 36.1316 100.649 36.599ZM99.5604 36.599C99.5604 36.2874 99.5215 35.9758 99.4049 35.6643C99.2883 35.3527 99.1328 35.119 98.8996 34.8853C98.7052 34.6516 98.4331 34.4958 98.161 34.34C97.8889 34.2232 97.578 34.1453 97.267 34.1453C96.956 34.1453 96.645 34.2232 96.3729 34.34C96.1008 34.4569 95.8287 34.6516 95.6344 34.8853C95.4011 35.119 95.2457 35.3916 95.129 35.6643C95.0124 35.9758 94.9736 36.2874 94.9736 36.599C94.9736 36.9106 95.0124 37.2222 95.129 37.5338C95.2457 37.8454 95.4011 38.0791 95.6344 38.3128C95.8676 38.5464 96.1008 38.7022 96.3729 38.858C96.645 38.9749 96.956 39.0528 97.267 39.0528C97.578 39.0528 97.8501 38.9749 98.161 38.858C98.472 38.7412 98.7052 38.5464 98.8996 38.3128C99.1328 38.0791 99.2883 37.8064 99.4049 37.5338C99.5215 37.2222 99.5604 36.9106 99.5604 36.599Z" fill="#737370"/>
<path d="M101.504 39.8317V33.3274H102.903C103.797 33.3274 104.419 33.3663 104.808 33.4832C105.197 33.6 105.508 33.7168 105.78 33.9505C106.13 34.2232 106.402 34.6127 106.596 35.0411C106.79 35.5085 106.868 36.0148 106.868 36.599C106.868 37.1833 106.79 37.6896 106.596 38.118C106.402 38.5464 106.13 38.9359 105.78 39.2086C105.508 39.4423 105.197 39.5981 104.847 39.6759C104.497 39.7538 103.953 39.8317 103.214 39.8317H102.942H101.504ZM102.515 38.897H103.37C103.836 38.897 104.186 38.858 104.419 38.7801C104.653 38.7022 104.847 38.6243 105.041 38.4685C105.274 38.2738 105.469 38.0012 105.585 37.6896C105.702 37.378 105.78 37.0275 105.78 36.599C105.78 36.1706 105.702 35.8201 105.585 35.5085C105.469 35.1969 105.274 34.9242 105.041 34.7295C104.847 34.5737 104.653 34.4569 104.419 34.4179C104.186 34.34 103.797 34.3011 103.253 34.3011H102.864H102.476L102.515 38.897Z" fill="#737370"/>
<path d="M108.579 39.8317V36.8717L106.441 33.3274H107.53L108.851 35.5474C108.89 35.5864 108.929 35.6643 108.968 35.7811C109.007 35.859 109.046 35.9759 109.124 36.0927C109.162 35.9759 109.201 35.898 109.24 35.7811C109.279 35.7032 109.318 35.5864 109.396 35.5474L110.756 33.3663H111.767L109.59 36.9106V39.8707L108.579 39.8317Z" fill="#737370"/>
</svg>
