<svg width="194" height="251" viewBox="0 0 194 251" fill="none" xmlns="http://www.w3.org/2000/svg">
<path d="M185.973 251C184.987 251 184.001 251 183.508 251C105.102 242.847 -13.7403 171.945 1.29992 16.5522C2.77928 1.23524 8.45017 0 11.1623 0C15.3539 0.247047 19.2988 5.18799 19.2988 9.88189C3.2724 121.3 76.7473 226.048 183.261 243.589C192.631 245.071 194.357 246.553 194.11 248.283C193.617 250.506 189.179 251 185.973 251ZM10.4226 2.22342C6.72424 2.22342 4.25864 7.65846 3.2724 16.7992C-11.5212 170.463 106.088 240.624 183.508 248.53C186.467 248.777 189.672 248.53 190.905 248.035C189.918 247.541 187.699 246.8 182.275 245.812C132.716 237.659 86.1166 208.014 54.8035 165.028C22.2575 120.065 8.69672 64.9734 16.5866 9.63484C16.8332 6.17618 13.8745 2.47047 10.4226 2.22342C10.6692 2.22342 10.6692 2.22342 10.4226 2.22342Z" fill="#E31F24"/>
<path d="M185.973 251C184.987 251 184.001 251 183.508 251C105.102 242.847 -13.7403 171.945 1.29992 16.5522C2.77928 1.23524 8.45017 0 11.1623 0C15.3539 0.247047 19.2988 5.18799 19.2988 9.88189C3.2724 121.3 76.7473 226.048 183.261 243.589C192.631 245.071 194.357 246.553 194.11 248.283C193.617 250.506 189.179 251 185.973 251ZM10.4226 2.22342C6.72424 2.22342 4.25864 7.65846 3.2724 16.7992C-11.5212 170.463 106.088 240.624 183.508 248.53C186.467 248.777 189.672 248.53 190.905 248.035C189.918 247.541 187.699 246.8 182.275 245.812C132.716 237.659 86.1166 208.014 54.8035 165.028C22.2575 120.065 8.69672 64.9734 16.5866 9.63484C16.8332 6.17618 13.8745 2.47047 10.4226 2.22342C10.6692 2.22342 10.6692 2.22342 10.4226 2.22342Z" fill="#E31F24"/>
</svg>
