<svg width="36" height="36" viewBox="0 0 36 36" fill="none" xmlns="http://www.w3.org/2000/svg">
<g clip-path="url(#clip0_437_1844)">
<path d="M18 0C14.4399 0 10.9598 1.05568 7.99974 3.03355C5.03966 5.01141 2.73255 7.82263 1.37018 11.1117C0.00779915 14.4008 -0.348661 18.02 0.345873 21.5116C1.04041 25.0033 2.75474 28.2106 5.27209 30.7279C7.78943 33.2453 10.9967 34.9596 14.4884 35.6541C17.98 36.3487 21.5992 35.9922 24.8883 34.6298C28.1774 33.2675 30.9886 30.9603 32.9665 28.0003C34.9443 25.0402 36 21.5601 36 18C36 13.2261 34.1036 8.64773 30.7279 5.27208C27.3523 1.89642 22.7739 0 18 0ZM18 7.5C19.0384 7.5 20.0534 7.80791 20.9168 8.38478C21.7801 8.96166 22.453 9.7816 22.8504 10.7409C23.2477 11.7002 23.3517 12.7558 23.1491 13.7742C22.9466 14.7926 22.4465 15.7281 21.7123 16.4623C20.9781 17.1965 20.0426 17.6965 19.0242 17.8991C18.0058 18.1017 16.9502 17.9977 15.9909 17.6004C15.0316 17.203 14.2117 16.5301 13.6348 15.6667C13.0579 14.8034 12.75 13.7884 12.75 12.75C12.75 11.3576 13.3031 10.0223 14.2877 9.03769C15.2723 8.05312 16.6076 7.5 18 7.5ZM28.5 26.34C28.502 26.6229 28.448 26.9035 28.3411 27.1655C28.2341 27.4274 28.0765 27.6657 27.8771 27.8664C27.6777 28.0672 27.4406 28.2266 27.1793 28.3353C26.9181 28.444 26.638 28.5 26.355 28.5H9.64501C9.36206 28.5 9.0819 28.444 8.82067 28.3353C8.55945 28.2266 8.32231 28.0672 8.12294 27.8664C7.92356 27.6657 7.76587 27.4274 7.65896 27.1655C7.55205 26.9035 7.49803 26.6229 7.50001 26.34V25.65C7.49971 24.8221 7.7278 24.0102 8.15917 23.3036C8.59055 22.597 9.20849 22.0231 9.94501 21.645C12.4252 20.3096 15.1842 19.5749 18 19.5C20.8159 19.5749 23.5748 20.3096 26.055 21.645C26.7915 22.0231 27.4095 22.597 27.8408 23.3036C28.2722 24.0102 28.5003 24.8221 28.5 25.65V26.34Z" fill="#95A4B4"/>
</g>
<defs>
<clipPath id="clip0_437_1844">
<rect width="36" height="36" fill="white"/>
</clipPath>
</defs>
</svg>
